<svg width="143" height="45" viewBox="0 0 143 45" fill="none" xmlns="http://www.w3.org/2000/svg">
<path fill-rule="evenodd" clip-rule="evenodd" d="M27.3146 5.84702L14.8249 18.3367C14.2781 18.8834 13.8443 19.5325 13.5484 20.2468C13.2524 20.9611 13.1001 21.7268 13.1001 22.5C13.1001 23.2732 13.2524 24.0388 13.5484 24.7532C13.8443 25.4675 14.2781 26.1165 14.8249 26.6632L27.3146 39.1529C28.419 40.257 29.9166 40.8771 31.4782 40.8771C33.0398 40.8771 34.5374 40.257 35.6418 39.1529L39.805 34.989L35.6418 30.8265L31.4786 34.9897L18.9881 22.5L31.4786 10.0103L39.805 18.3367L31.4786 26.6632L35.6418 30.8265L43.9683 22.5C44.5151 21.9533 44.9488 21.3043 45.2448 20.5899C45.5407 19.8756 45.693 19.1099 45.693 18.3367C45.693 17.5635 45.5407 16.7979 45.2448 16.0836C44.9488 15.3692 44.5151 14.7202 43.9683 14.1735L35.6418 5.84702C34.5374 4.743 33.0398 4.1228 31.4782 4.1228C29.9166 4.1228 28.419 4.743 27.3146 5.84702V5.84702Z" fill="#98CA3F"/>
<path d="M53.4464 33.4096V11.7126H62.4345C67.2698 11.7126 70.0904 15.2468 70.0904 19.3686C70.0904 23.4289 67.2039 26.9001 62.4345 26.9001H57.0723V33.4096H53.4464ZM62.4345 23.739C64.8829 23.739 66.6192 21.7858 66.6192 19.2753C66.6192 16.7648 64.945 14.8434 62.4345 14.8434H57.0108V23.739H62.4345Z" fill="white"/>
<path d="M75.66 11.7126V28.0511C75.66 30.5305 76.3106 31.3076 78.8833 30.9028L79.0076 33.5058C74.4188 34.2497 72.3124 33.0721 72.3124 28.0821V11.7126H75.66Z" fill="white"/>
<path d="M94.4674 28.9457C94.4674 30.3098 94.4371 31.1772 96.0794 31.0225V33.3169C93.9404 33.7195 91.74 33.4716 91.74 30.9922V30.3727C90.9029 32.4487 88.7958 33.6292 86.5946 33.6292C82.0384 33.6292 79.838 29.9715 79.838 25.7565C79.9312 20.7976 83.4646 18.0695 88.331 18.1627C90.4692 18.1627 92.5149 18.6897 94.4674 19.5571V28.9457ZM91.2108 21.5074C90.188 21.0418 89.0415 20.8871 88.0808 20.8871C85.2291 20.8871 83.3069 22.5295 83.2144 25.7535C83.2144 28.4809 84.5467 30.6199 87.3059 30.6199C89.8164 30.6199 91.1183 28.6667 91.2108 25.9082V21.5074Z" fill="white"/>
<path d="M103.168 18.5032H108.344V21.2313H103.168V27.6438C103.168 31.4563 105.555 31.7042 108.623 30.6199L108.964 33.1615C103.849 34.7417 99.8511 33.5641 99.8511 27.706V21.2284H96.8166V18.5032H99.8511V14.8433H103.168V18.5032Z" fill="white"/>
<path d="M110.467 32.7271L114.806 25.9394L118.063 21.2284H110.934V18.4692H122.929V18.9037L118.311 26.0637L115.276 30.4956H122.9V33.4095H110.467V32.7271Z" fill="white"/>
<path d="M126.99 11.6771C128.013 11.6771 129.005 12.3588 129.005 13.6607C129.005 14.9929 128.013 15.6753 127.021 15.6753C125.999 15.6753 124.945 15.0247 124.945 13.6607C124.945 12.3277 125.97 11.6771 126.99 11.6771ZM128.664 33.4096H125.286V18.5034H128.664V33.4096Z" fill="white"/>
</svg>
